<svg width="16" height="16" viewBox="0 0 16 16" fill="none" xmlns="http://www.w3.org/2000/svg">
<g clip-path="url(#clip0_10:42)">
<path d="M15.9843 4.76761C15.9469 3.94931 15.8094 3.38673 15.6124 2.89925C15.4093 2.38181 15.0967 1.91854 14.6872 1.53342C14.2871 1.14231 13.8026 0.8384 13.2713 0.6459C12.7619 0.456338 12.1805 0.324009 11.3304 0.28793C10.4739 0.248795 10.202 0.239746 8.02967 0.239746C5.85737 0.239746 5.58546 0.248795 4.73215 0.284874C3.88201 0.320953 3.29754 0.4534 2.79122 0.642844C2.25352 0.8384 1.77222 1.13925 1.37212 1.53342C0.96579 1.91854 0.650176 2.38486 0.450064 2.89632C0.253126 3.38673 0.115648 3.94625 0.0781653 4.76455C0.0375079 5.58897 0.0281067 5.85069 0.0281067 7.94163C0.0281067 10.0326 0.0375079 10.2943 0.0749908 11.1156C0.112474 11.9339 0.250074 12.4965 0.447012 12.984C0.650176 13.5014 0.96579 13.9647 1.37212 14.3498C1.77222 14.7409 2.25669 15.0449 2.78804 15.2374C3.29754 15.4269 3.87883 15.5592 4.7291 15.5953C5.58229 15.6315 5.85432 15.6404 8.02661 15.6404C10.1989 15.6404 10.4708 15.6315 11.3241 15.5953C12.1743 15.5592 12.7587 15.4269 13.2651 15.2374C14.3403 14.8372 15.1905 14.0189 15.6062 12.984C15.803 12.4936 15.9406 11.9339 15.9781 11.1156C16.0156 10.2943 16.025 10.0326 16.025 7.94163C16.025 5.85069 16.0218 5.58897 15.9843 4.76761ZM14.5435 11.0555C14.5091 11.8076 14.3778 12.2138 14.2684 12.4845C13.9996 13.1555 13.4464 13.6879 12.7493 13.9467C12.468 14.052 12.043 14.1784 11.2647 14.2114C10.4208 14.2476 10.1677 14.2565 8.03284 14.2565C5.89803 14.2565 5.64175 14.2476 4.80089 14.2114C4.01949 14.1784 3.59753 14.052 3.31622 13.9467C2.96935 13.8233 2.65362 13.6278 2.39734 13.3721C2.13167 13.1223 1.9285 12.8215 1.8003 12.4876C1.69091 12.2168 1.55966 11.8076 1.52535 11.0585C1.48774 10.2462 1.47846 10.0025 1.47846 7.94762C1.47846 5.89276 1.48774 5.64608 1.52535 4.83683C1.55966 4.08469 1.69091 3.67854 1.8003 3.40777C1.9285 3.07377 2.13167 2.76998 2.40052 2.52319C2.65985 2.26746 2.97241 2.0719 3.3194 1.94862C3.6007 1.84332 4.02583 1.71699 4.80406 1.68385C5.64798 1.64777 5.9012 1.63872 8.03589 1.63872C10.1739 1.63872 10.427 1.64777 11.2678 1.68385C12.0492 1.71699 12.4712 1.84332 12.7525 1.94862C13.0994 2.0719 13.4151 2.26746 13.6714 2.52319C13.9371 2.77292 14.1402 3.07377 14.2684 3.40777C14.3778 3.67854 14.5091 4.08763 14.5435 4.83683C14.581 5.64914 14.5904 5.89276 14.5904 7.94762C14.5904 10.0025 14.581 10.2432 14.5435 11.0555Z" fill="white"/>
<path d="M8.02967 3.98535C5.76055 3.98535 3.91949 5.75734 3.91949 7.94159C3.91949 10.1258 5.76055 11.8978 8.02967 11.8978C10.2989 11.8978 12.1398 10.1258 12.1398 7.94159C12.1398 5.75734 10.2989 3.98535 8.02967 3.98535ZM8.02967 10.5079C6.55758 10.5079 5.3635 9.35866 5.3635 7.94159C5.3635 6.52452 6.55758 5.37528 8.02967 5.37528C9.50188 5.37528 10.6958 6.52452 10.6958 7.94159C10.6958 9.35866 9.50188 10.5079 8.02967 10.5079Z" fill="white"/>
<path d="M13.262 3.82887C13.262 4.33892 12.8324 4.75248 12.3024 4.75248C11.7725 4.75248 11.3428 4.33892 11.3428 3.82887C11.3428 3.31871 11.7725 2.90527 12.3024 2.90527C12.8324 2.90527 13.262 3.31871 13.262 3.82887Z" fill="white"/>
</g>
<defs>
<clipPath id="clip0_10:42">
<rect width="16" height="15.4007" fill="white" transform="translate(0 0.239746)"/>
</clipPath>
</defs>
</svg>
