<svg width="14" height="14" viewBox="0 0 14 14" fill="none" xmlns="http://www.w3.org/2000/svg">
<g clip-path="url(#clip0_10:23)">
<path d="M12.6 0.202148H1.4C0.63 0.202148 0 0.808553 0 1.54971V12.3302C0 13.0714 0.63 13.6778 1.4 13.6778H12.6C13.37 13.6778 14 13.0714 14 12.3302V1.54971C14 0.808553 13.37 0.202148 12.6 0.202148ZM4.2 11.6565H2.1V5.59241H4.2V11.6565ZM3.15 4.44698C2.45 4.44698 1.89 3.90795 1.89 3.23417C1.89 2.56039 2.45 2.02136 3.15 2.02136C3.85 2.02136 4.41 2.56039 4.41 3.23417C4.41 3.90795 3.85 4.44698 3.15 4.44698ZM11.9 11.6565H9.8V8.08541C9.8 7.54641 9.31 7.07473 8.75 7.07473C8.19 7.07473 7.7 7.54641 7.7 8.08541V11.6565H5.6V5.59241H7.7V6.40095C8.05 5.86192 8.82 5.45765 9.45 5.45765C10.78 5.45765 11.9 6.53571 11.9 7.81589V11.6565Z" fill="white"/>
</g>
<defs>
<clipPath id="clip0_10:23">
<rect width="14" height="13.4757" fill="white" transform="translate(0 0.202148)"/>
</clipPath>
</defs>
</svg>
