<svg width="20" height="20" viewBox="0 0 20 20" fill="none" xmlns="http://www.w3.org/2000/svg">
<g clip-path="url(#clip0_10:4)">
<path d="M20 3.97084C19.2563 4.28487 18.4637 4.49302 17.6375 4.59409C18.4875 4.1056 19.1363 3.33797 19.4412 2.41272C18.6488 2.86752 17.7738 3.18877 16.8412 3.36805C16.0887 2.5968 15.0162 2.11914 13.8462 2.11914C11.5763 2.11914 9.74875 3.89263 9.74875 6.06679C9.74875 6.37961 9.77625 6.68041 9.84375 6.96677C6.435 6.80674 3.41875 5.23418 1.3925 2.83864C1.03875 3.42941 0.83125 4.1056 0.83125 4.83352C0.83125 6.20034 1.5625 7.41194 2.6525 8.1134C1.99375 8.10137 1.3475 7.91728 0.8 7.62732C0.8 7.63935 0.8 7.65499 0.8 7.67063C0.8 9.5885 2.22125 11.1815 4.085 11.5485C3.75125 11.6363 3.3875 11.6784 3.01 11.6784C2.7475 11.6784 2.4825 11.664 2.23375 11.6111C2.765 13.174 4.2725 14.323 6.065 14.3603C4.67 15.4107 2.89875 16.0436 0.98125 16.0436C0.645 16.0436 0.3225 16.0291 0 15.9894C1.81625 17.1168 3.96875 17.7605 6.29 17.7605C13.835 17.7605 17.96 11.7446 17.96 6.53001C17.96 6.35555 17.9538 6.1871 17.945 6.01986C18.7588 5.46399 19.4425 4.76975 20 3.97084Z" fill="white"/>
</g>
<defs>
<clipPath id="clip0_10:4">
<rect width="20" height="19.2509" fill="white" transform="translate(0 0.314453)"/>
</clipPath>
</defs>
</svg>
